<?xml version="1.0" encoding="UTF-8" standalone="no"?><!DOCTYPE svg PUBLIC "-//W3C//DTD SVG 1.1//EN" "http://www.w3.org/Graphics/SVG/1.1/DTD/svg11.dtd"><svg width="100%" height="100%" viewBox="0 0 32 32" version="1.1" xmlns="http://www.w3.org/2000/svg" xmlns:xlink="http://www.w3.org/1999/xlink" xml:space="preserve" xmlns:serif="http://www.serif.com/" style="fill-rule:evenodd;clip-rule:evenodd;stroke-linecap:round;stroke-linejoin:round;stroke-miterlimit:1;"><g id="Icon"><g><rect x="1" y="1" width="30" height="30" style="fill:#564242;"/><path d="M16,2l-14,14l14,14l14,-14l-14,-14Z" style="fill:none;stroke:#000;stroke-width:0.83px;"/><path d="M16,4l-12,12l12,12l12,-12l-12,-12Z" style="fill:none;stroke:#000;stroke-width:0.8px;stroke-miterlimit:2;"/><path d="M16,6l-10,10l10,10l10,-10l-10,-10Z" style="fill:none;stroke:#000;stroke-width:0.8px;stroke-miterlimit:2;"/><path d="M16,8l-8,8l8,8l8,-8l-8,-8Z" style="fill:none;stroke:#000;stroke-width:0.8px;stroke-miterlimit:2;"/><path d="M16,10l-6,6l6,6l6,-6l-6,-6Z" style="fill:none;stroke:#000;stroke-width:0.8px;stroke-miterlimit:2;"/><path d="M16,12l-4,4l4,4l4,-4l-4,-4Z"/></g></g></svg>