<?xml version="1.0" encoding="UTF-8" standalone="no"?><!DOCTYPE svg PUBLIC "-//W3C//DTD SVG 1.1//EN" "http://www.w3.org/Graphics/SVG/1.1/DTD/svg11.dtd"><svg width="100%" height="100%" viewBox="0 0 32 32" version="1.1" xmlns="http://www.w3.org/2000/svg" xmlns:xlink="http://www.w3.org/1999/xlink" xml:space="preserve" xmlns:serif="http://www.serif.com/" style="fill-rule:evenodd;clip-rule:evenodd;stroke-linejoin:round;stroke-miterlimit:2;"><g id="Icon"><g><path d="M26,26l0,4l-20,0l0,-4l-4,0l0,-20l28,0l0,20l-4,0Z"/><path d="M30,6l0,-4l-28,0l0,4l28,0Z" style="fill:#c2aeae;"/><g><path d="M21,17l0,-2l-3,0l0,2l3,0Z" style="fill:#ffec12;"/><rect x="15" y="10" width="2" height="3" style="fill:#ffec12;"/><path d="M13,17l0,-2l-3,0l0,2l3,0Z" style="fill:#ffec12;"/><rect x="15" y="19" width="2" height="3" style="fill:#ffec12;"/></g><path d="M30,30l0,-4l-4,0l0,4l4,0Z" style="fill:#c2aeae;"/><path d="M6,30l0,-4l-4,0l0,4l4,0Z" style="fill:#c2aeae;"/></g></g></svg>