<?xml version="1.0" encoding="UTF-8" standalone="no"?><!DOCTYPE svg PUBLIC "-//W3C//DTD SVG 1.1//EN" "http://www.w3.org/Graphics/SVG/1.1/DTD/svg11.dtd"><svg width="100%" height="100%" viewBox="0 0 32 32" version="1.1" xmlns="http://www.w3.org/2000/svg" xmlns:xlink="http://www.w3.org/1999/xlink" xml:space="preserve" xmlns:serif="http://www.serif.com/" style="fill-rule:evenodd;clip-rule:evenodd;stroke-linejoin:round;stroke-miterlimit:2;"><g id="Icon"><g><rect x="26" y="2" width="4" height="4" style="fill:#c2aeae;"/><rect x="26" y="26" width="4" height="4" style="fill:#c2aeae;"/><rect x="2" y="26" width="4" height="4" style="fill:#c2aeae;"/><rect x="2" y="2" width="4" height="4" style="fill:#c2aeae;"/><path d="M26,6l4,0l0,20l-4,0l0,4l-20,0l0,-4l-4,0l0,-20l4,0l0,-4l20,0l0,4Z"/><g><rect x="15" y="11" width="2" height="3" style="fill:#ffec12;"/><rect x="11" y="15" width="3" height="2" style="fill:#ffec12;"/><rect x="15" y="18" width="2" height="3" style="fill:#ffec12;"/><rect x="18" y="15" width="3" height="2" style="fill:#ffec12;"/></g></g></g></svg>