<?xml version="1.0" encoding="UTF-8" standalone="no"?><!DOCTYPE svg PUBLIC "-//W3C//DTD SVG 1.1//EN" "http://www.w3.org/Graphics/SVG/1.1/DTD/svg11.dtd"><svg width="100%" height="100%" viewBox="0 0 32 32" version="1.1" xmlns="http://www.w3.org/2000/svg" xmlns:xlink="http://www.w3.org/1999/xlink" xml:space="preserve" xmlns:serif="http://www.serif.com/" style="fill-rule:evenodd;clip-rule:evenodd;stroke-linejoin:round;stroke-miterlimit:2;"><g id="Icon"><g><path d="M31,30l0,-28l-4,0l0,24l-24,0l0,4l28,0Z" style="fill:#c2aeae;"/><path d="M3,26l24,0l0,-20l-0.006,0l0,-4l-19.994,0l0,0.766l0,-0.766l-0.171,0c0,0 0.141,0.407 0.171,0.766l0,0.234c0,0 -0.02,1.071 -0.523,1.692c0,0 -0.893,1.292 -2.42,1.308l-0.057,0c0,0 -0.623,-0.035 -1,-0.171l0,20.171Z"/><rect x="12" y="15" width="3" height="2" style="fill:#ffec12;"/><rect x="16" y="11" width="2" height="3" style="fill:#ffec12;"/><rect x="19" y="15" width="3" height="2" style="fill:#ffec12;"/><path d="M3,5.829c0.313,0.111 0.649,0.171 1,0.171c1.656,0 3,-1.344 3,-3c0,-0.351 -0.06,-0.687 -0.171,-1l-3.829,0l0,3.829Z" style="fill:#c2aeae;"/></g></g></svg>