<?xml version="1.0" encoding="UTF-8" standalone="no"?><!DOCTYPE svg PUBLIC "-//W3C//DTD SVG 1.1//EN" "http://www.w3.org/Graphics/SVG/1.1/DTD/svg11.dtd"><svg width="100%" height="100%" viewBox="0 0 32 32" version="1.1" xmlns="http://www.w3.org/2000/svg" xmlns:xlink="http://www.w3.org/1999/xlink" xml:space="preserve" xmlns:serif="http://www.serif.com/" style="fill-rule:evenodd;clip-rule:evenodd;stroke-linejoin:round;stroke-miterlimit:2;"><g id="Icon"><g><rect x="2" y="2" width="28" height="28"/><rect x="18" y="15" width="3" height="2" style="fill:#ffec12;"/><rect x="15" y="18" width="2" height="3" style="fill:#ffec12;"/><rect x="15" y="11" width="2" height="3" style="fill:#ffec12;"/><rect x="11" y="15" width="3" height="2" style="fill:#ffec12;"/><path d="M30,26.171c-0.313,-0.111 -0.649,-0.171 -1,-0.171c-1.656,0 -3,1.344 -3,3c0,0.351 0.06,0.687 0.171,1l3.829,0l0,-3.829Z" style="fill:#c2aeae;"/><path d="M2,26.171c0.313,-0.111 0.649,-0.171 1,-0.171c1.656,0 3,1.344 3,3c0,0.351 -0.06,0.687 -0.171,1l-3.829,0l0,-3.829Z" style="fill:#c2aeae;"/><path d="M2,5.829c0.313,0.111 0.649,0.171 1,0.171c1.656,0 3,-1.344 3,-3c0,-0.351 -0.06,-0.687 -0.171,-1l-3.829,0l0,3.829Z" style="fill:#c2aeae;"/><path d="M30,5.829c-0.313,0.111 -0.649,0.171 -1,0.171c-1.656,0 -3,-1.344 -3,-3c0,-0.351 0.06,-0.687 0.171,-1l3.829,0l0,3.829Z" style="fill:#c2aeae;"/></g></g></svg>