<?xml version="1.0" encoding="UTF-8" standalone="no"?><!DOCTYPE svg PUBLIC "-//W3C//DTD SVG 1.1//EN" "http://www.w3.org/Graphics/SVG/1.1/DTD/svg11.dtd"><svg width="100%" height="100%" viewBox="0 0 32 32" version="1.1" xmlns="http://www.w3.org/2000/svg" xmlns:xlink="http://www.w3.org/1999/xlink" xml:space="preserve" xmlns:serif="http://www.serif.com/" style="fill-rule:evenodd;clip-rule:evenodd;stroke-linejoin:round;stroke-miterlimit:2;"><g id="Icon"><g><g><rect x="2" y="2" width="28" height="28" style="fill:#564242;"/><rect x="2" y="28" width="9" height="2" style="fill:#9d3a3a;"/><rect x="12" y="28" width="15" height="2" style="fill:#9d3a3a;"/><rect x="28" y="28" width="2" height="2" style="fill:#9d3a3a;"/><rect x="23" y="25" width="7" height="2" style="fill:#9d3a3a;"/><rect x="8" y="25" width="14" height="2" style="fill:#9d3a3a;"/><rect x="2" y="25" width="4" height="2" style="fill:#9d3a3a;"/><rect x="2" y="22" width="13" height="2" style="fill:#9d3a3a;"/><rect x="16" y="22" width="8" height="2" style="fill:#9d3a3a;"/><rect x="25" y="22" width="5" height="2" style="fill:#9d3a3a;"/><rect x="19" y="19" width="11" height="2" style="fill:#9d3a3a;"/><rect x="12" y="19" width="6" height="2" style="fill:#9d3a3a;"/><rect x="2" y="19" width="9" height="2" style="fill:#9d3a3a;"/><rect x="2" y="16" width="2" height="2" style="fill:#9d3a3a;"/><rect x="5" y="16" width="8" height="2" style="fill:#9d3a3a;"/><rect x="14" y="16" width="6" height="2" style="fill:#9d3a3a;"/><rect x="21" y="16" width="9" height="2" style="fill:#9d3a3a;"/><rect x="2" y="13" width="14" height="2" style="fill:#9d3a3a;"/><rect x="17" y="13" width="4" height="2" style="fill:#9d3a3a;"/><rect x="22" y="13" width="5" height="2" style="fill:#9d3a3a;"/><rect x="28" y="13" width="2" height="2" style="fill:#9d3a3a;"/><rect x="22" y="10" width="8" height="2" style="fill:#9d3a3a;"/><rect x="15" y="10" width="6" height="2" style="fill:#9d3a3a;"/><rect x="2" y="10" width="12" height="2" style="fill:#9d3a3a;"/><rect x="2" y="7" width="4" height="2" style="fill:#9d3a3a;"/><rect x="7" y="7" width="8" height="2" style="fill:#9d3a3a;"/><rect x="16" y="7" width="4" height="2" style="fill:#9d3a3a;"/><rect x="21" y="7" width="9" height="2" style="fill:#9d3a3a;"/><rect x="2" y="4" width="10" height="2" style="fill:#9d3a3a;"/><rect x="13" y="4" width="9" height="2" style="fill:#9d3a3a;"/><rect x="23" y="4" width="3" height="2" style="fill:#9d3a3a;"/><rect x="27" y="4" width="3" height="2" style="fill:#9d3a3a;"/><rect x="2" y="2" width="5" height="1" style="fill:#9d3a3a;"/><rect x="9" y="2" width="7" height="1" style="fill:#9d3a3a;"/><rect x="17" y="2" width="7" height="1" style="fill:#9d3a3a;"/><rect x="25" y="2" width="5" height="1" style="fill:#9d3a3a;"/></g></g></g></svg>