<?xml version="1.0" encoding="UTF-8" standalone="no"?><!DOCTYPE svg PUBLIC "-//W3C//DTD SVG 1.1//EN" "http://www.w3.org/Graphics/SVG/1.1/DTD/svg11.dtd"><svg width="100%" height="100%" viewBox="0 0 32 32" version="1.1" xmlns="http://www.w3.org/2000/svg" xmlns:xlink="http://www.w3.org/1999/xlink" xml:space="preserve" xmlns:serif="http://www.serif.com/" style="fill-rule:evenodd;clip-rule:evenodd;stroke-linejoin:round;stroke-miterlimit:2;"><g id="Icon"><g><rect x="2" y="2" width="28" height="28" style="fill:#030000;"/><g><path d="M4,26l1.732,1l0,2l-1.732,1l-1.732,-1l0,-2l1.732,-1Z" style="fill:#968282;"/><path d="M6,23l1.732,1l0,2l-1.732,1l-1.732,-1l0,-2l1.732,-1Z" style="fill:#968282;"/><path d="M4,20l1.732,1l0,2l-1.732,1l-1.732,-1l0,-2l1.732,-1Z" style="fill:#968282;"/><path d="M16,26l1.732,1l0,2l-1.732,1l-1.732,-1l0,-2l1.732,-1Z" style="fill:#968282;"/><path d="M18,23l1.732,1l0,2l-1.732,1l-1.732,-1l0,-2l1.732,-1Z" style="fill:#968282;"/><path d="M16,20l1.732,1l0,2l-1.732,1l-1.732,-1l0,-2l1.732,-1Z" style="fill:#968282;"/><path d="M8,26l1.732,1l0,2l-1.732,1l-1.732,-1l0,-2l1.732,-1Z" style="fill:#968282;"/><path d="M10,23l1.732,1l0,2l-1.732,1l-1.732,-1l0,-2l1.732,-1Z" style="fill:#968282;"/><path d="M8,20l1.732,1l0,2l-1.732,1l-1.732,-1l0,-2l1.732,-1Z" style="fill:#968282;"/><path d="M20,26l1.732,1l0,2l-1.732,1l-1.732,-1l0,-2l1.732,-1Z" style="fill:#968282;"/><path d="M22,23l1.732,1l0,2l-1.732,1l-1.732,-1l0,-2l1.732,-1Z" style="fill:#968282;"/><path d="M20,20l1.732,1l0,2l-1.732,1l-1.732,-1l0,-2l1.732,-1Z" style="fill:#968282;"/><path d="M12,26l1.732,1l0,2l-1.732,1l-1.732,-1l0,-2l1.732,-1Z" style="fill:#968282;"/><path d="M14,23l1.732,1l0,2l-1.732,1l-1.732,-1l0,-2l1.732,-1Z" style="fill:#968282;"/><path d="M12,20l1.732,1l0,2l-1.732,1l-1.732,-1l0,-2l1.732,-1Z" style="fill:#968282;"/><path d="M28,26l1.732,1l0,2l-1.732,1l-1.732,-1l0,-2l1.732,-1Z" style="fill:#968282;"/><path d="M28,20l1.732,1l0,2l-1.732,1l-1.732,-1l0,-2l1.732,-1Z" style="fill:#968282;"/><path d="M24,26l1.732,1l0,2l-1.732,1l-1.732,-1l0,-2l1.732,-1Z" style="fill:#968282;"/><path d="M26,23l1.732,1l0,2l-1.732,1l-1.732,-1l0,-2l1.732,-1Z" style="fill:#968282;"/><path d="M24,20l1.732,1l0,2l-1.732,1l-1.732,-1l0,-2l1.732,-1Z" style="fill:#968282;"/><path d="M4,14l1.732,1l0,2l-1.732,1l-1.732,-1l0,-2l1.732,-1Z" style="fill:#968282;"/><path d="M14,17l1.732,1l0,2l-1.732,1l-1.732,-1l0,-2l1.732,-1Z" style="fill:#968282;"/><path d="M16,14l1.732,1l0,2l-1.732,1l-1.732,-1l0,-2l1.732,-1Z" style="fill:#968282;"/><path d="M14,11l1.732,1l0,2l-1.732,1l-1.732,-1l0,-2l1.732,-1Z" style="fill:#968282;"/><path d="M6,17l1.732,1l0,2l-1.732,1l-1.732,-1l0,-2l1.732,-1Z" style="fill:#968282;"/><path d="M8,14l1.732,1l0,2l-1.732,1l-1.732,-1l0,-2l1.732,-1Z" style="fill:#968282;"/><path d="M6,11l1.732,1l0,2l-1.732,1l-1.732,-1l0,-2l1.732,-1Z" style="fill:#968282;"/><path d="M18,17l1.732,1l0,2l-1.732,1l-1.732,-1l0,-2l1.732,-1Z" style="fill:#968282;"/><path d="M20,14l1.732,1l0,2l-1.732,1l-1.732,-1l0,-2l1.732,-1Z" style="fill:#968282;"/><path d="M18,11l1.732,1l0,2l-1.732,1l-1.732,-1l0,-2l1.732,-1Z" style="fill:#968282;"/><path d="M10,17l1.732,1l0,2l-1.732,1l-1.732,-1l0,-2l1.732,-1Z" style="fill:#968282;"/><path d="M12,14l1.732,1l0,2l-1.732,1l-1.732,-1l0,-2l1.732,-1Z" style="fill:#968282;"/><path d="M10,11l1.732,1l0,2l-1.732,1l-1.732,-1l0,-2l1.732,-1Z" style="fill:#968282;"/><path d="M26,17l1.732,1l0,2l-1.732,1l-1.732,-1l0,-2l1.732,-1Z" style="fill:#968282;"/><path d="M28,14l1.732,1l0,2l-1.732,1l-1.732,-1l0,-2l1.732,-1Z" style="fill:#968282;"/><path d="M26,11l1.732,1l0,2l-1.732,1l-1.732,-1l0,-2l1.732,-1Z" style="fill:#968282;"/><path d="M22,17l1.732,1l0,2l-1.732,1l-1.732,-1l0,-2l1.732,-1Z" style="fill:#968282;"/><path d="M24,14l1.732,1l0,2l-1.732,1l-1.732,-1l0,-2l1.732,-1Z" style="fill:#968282;"/><path d="M22,11l1.732,1l0,2l-1.732,1l-1.732,-1l0,-2l1.732,-1Z" style="fill:#968282;"/><path d="M4,8l1.732,1l0,2l-1.732,1l-1.732,-1l0,-2l1.732,-1Z" style="fill:#968282;"/><path d="M6,5l1.732,1l0,2l-1.732,1l-1.732,-1l0,-2l1.732,-1Z" style="fill:#968282;"/><path d="M4,2l1.732,1l0,2l-1.732,1l-1.732,-1l0,-2l1.732,-1Z" style="fill:#968282;"/><path d="M16,8l1.732,1l0,2l-1.732,1l-1.732,-1l0,-2l1.732,-1Z" style="fill:#968282;"/><path d="M18,5l1.732,1l0,2l-1.732,1l-1.732,-1l0,-2l1.732,-1Z" style="fill:#968282;"/><path d="M16,2l1.732,1l0,2l-1.732,1l-1.732,-1l0,-2l1.732,-1Z" style="fill:#968282;"/><path d="M8,8l1.732,1l0,2l-1.732,1l-1.732,-1l0,-2l1.732,-1Z" style="fill:#968282;"/><path d="M10,5l1.732,1l0,2l-1.732,1l-1.732,-1l0,-2l1.732,-1Z" style="fill:#968282;"/><path d="M8,2l1.732,1l0,2l-1.732,1l-1.732,-1l0,-2l1.732,-1Z" style="fill:#968282;"/><path d="M20,8l1.732,1l0,2l-1.732,1l-1.732,-1l0,-2l1.732,-1Z" style="fill:#968282;"/><path d="M22,5l1.732,1l0,2l-1.732,1l-1.732,-1l0,-2l1.732,-1Z" style="fill:#968282;"/><path d="M20,2l1.732,1l0,2l-1.732,1l-1.732,-1l0,-2l1.732,-1Z" style="fill:#968282;"/><path d="M12,8l1.732,1l0,2l-1.732,1l-1.732,-1l0,-2l1.732,-1Z" style="fill:#968282;"/><path d="M14,5l1.732,1l0,2l-1.732,1l-1.732,-1l0,-2l1.732,-1Z" style="fill:#968282;"/><path d="M12,2l1.732,1l0,2l-1.732,1l-1.732,-1l0,-2l1.732,-1Z" style="fill:#968282;"/><path d="M28,8l1.732,1l0,2l-1.732,1l-1.732,-1l0,-2l1.732,-1Z" style="fill:#968282;"/><path d="M28,2l1.732,1l0,2l-1.732,1l-1.732,-1l0,-2l1.732,-1Z" style="fill:#968282;"/><path d="M24,8l1.732,1l0,2l-1.732,1l-1.732,-1l0,-2l1.732,-1Z" style="fill:#968282;"/><path d="M26,5l1.732,1l0,2l-1.732,1l-1.732,-1l0,-2l1.732,-1Z" style="fill:#968282;"/><path d="M24,2l1.732,1l0,2l-1.732,1l-1.732,-1l0,-2l1.732,-1Z" style="fill:#968282;"/><path d="M3.732,18l0,2l-1.732,1l0,-4l1.732,1Z" style="fill:#968282;"/><path d="M28.268,18l0,2l1.732,1l0,-4l-1.732,1Z" style="fill:#968282;"/><path d="M3.732,12l0,2l-1.732,1l0,-4l1.732,1Z" style="fill:#968282;"/><path d="M28.268,12l0,2l1.732,1l0,-4l-1.732,1Z" style="fill:#968282;"/><path d="M3.732,6l0,2l-1.732,1l0,-4l1.732,1Z" style="fill:#968282;"/><path d="M28.268,6l0,2l1.732,1l0,-4l-1.732,1Z" style="fill:#968282;"/><path d="M3.732,24l0,2l-1.732,1l0,-4l1.732,1Z" style="fill:#968282;"/><path d="M28.268,24l0,2l1.732,1l0,-4l-1.732,1Z" style="fill:#968282;"/></g></g></g></svg>