<?xml version="1.0" encoding="UTF-8" standalone="no"?><!DOCTYPE svg PUBLIC "-//W3C//DTD SVG 1.1//EN" "http://www.w3.org/Graphics/SVG/1.1/DTD/svg11.dtd"><svg width="100%" height="100%" viewBox="0 0 32 32" version="1.1" xmlns="http://www.w3.org/2000/svg" xmlns:xlink="http://www.w3.org/1999/xlink" xml:space="preserve" xmlns:serif="http://www.serif.com/" style="fill-rule:evenodd;clip-rule:evenodd;stroke-linejoin:round;stroke-miterlimit:2;"><g id="Icon"><g><g><path d="M2,2l0,28l28,0l0,-28l-28,0Z" style="fill:#564242;"/><path d="M28,21l0,9l2,0l0,-9l-2,0Z" style="fill:#9d3a3a;"/><path d="M28,5l0,15l2,0l0,-15l-2,0Z" style="fill:#9d3a3a;"/><path d="M28,2l0,2l2,0l0,-2l-2,0Z" style="fill:#9d3a3a;"/><path d="M25,2l0,7l2,0l0,-7l-2,0Z" style="fill:#9d3a3a;"/><path d="M25,10l0,14l2,0l0,-14l-2,0Z" style="fill:#9d3a3a;"/><path d="M25,26l0,4l2,0l0,-4l-2,0Z" style="fill:#9d3a3a;"/><path d="M22,17l0,13l2,0l0,-13l-2,0Z" style="fill:#9d3a3a;"/><path d="M22,8l0,8l2,0l0,-8l-2,0Z" style="fill:#9d3a3a;"/><path d="M22,2l0,5l2,0l0,-5l-2,0Z" style="fill:#9d3a3a;"/><path d="M19,2l0,11l2,0l0,-11l-2,0Z" style="fill:#9d3a3a;"/><path d="M19,14l0,6l2,0l0,-6l-2,0Z" style="fill:#9d3a3a;"/><path d="M19,21l0,9l2,0l0,-9l-2,0Z" style="fill:#9d3a3a;"/><path d="M16,28l0,2l2,0l0,-2l-2,0Z" style="fill:#9d3a3a;"/><path d="M16,19l0,8l2,0l0,-8l-2,0Z" style="fill:#9d3a3a;"/><path d="M16,12l0,6l2,0l0,-6l-2,0Z" style="fill:#9d3a3a;"/><path d="M16,2l0,9l2,0l0,-9l-2,0Z" style="fill:#9d3a3a;"/><path d="M13,16l0,14l2,0l0,-14l-2,0Z" style="fill:#9d3a3a;"/><path d="M13,11l0,4l2,0l0,-4l-2,0Z" style="fill:#9d3a3a;"/><path d="M13,5l0,5l2,0l0,-5l-2,0Z" style="fill:#9d3a3a;"/><path d="M13,2l0,2l2,0l0,-2l-2,0Z" style="fill:#9d3a3a;"/><path d="M10,2l0,8l2,0l0,-8l-2,0Z" style="fill:#9d3a3a;"/><path d="M10,11l0,6l2,0l0,-6l-2,0Z" style="fill:#9d3a3a;"/><path d="M10,18l0,12l2,0l0,-12l-2,0Z" style="fill:#9d3a3a;"/><path d="M7,26l0,4l2,0l0,-4l-2,0Z" style="fill:#9d3a3a;"/><path d="M7,17l0,8l2,0l0,-8l-2,0Z" style="fill:#9d3a3a;"/><path d="M7,12l0,4l2,0l0,-4l-2,0Z" style="fill:#9d3a3a;"/><path d="M7,2l0,9l2,0l0,-9l-2,0Z" style="fill:#9d3a3a;"/><path d="M4,20l0,10l2,0l0,-10l-2,0Z" style="fill:#9d3a3a;"/><path d="M4,10l0,9l2,0l0,-9l-2,0Z" style="fill:#9d3a3a;"/><path d="M4,6l0,3l2,0l0,-3l-2,0Z" style="fill:#9d3a3a;"/><path d="M4,2l0,3l2,0l0,-3l-2,0Z" style="fill:#9d3a3a;"/><path d="M2,25l0,5l1,0l0,-5l-1,0Z" style="fill:#9d3a3a;"/><path d="M2,16l0,7l1,0l0,-7l-1,0Z" style="fill:#9d3a3a;"/><path d="M2,8l0,7l1,0l0,-7l-1,0Z" style="fill:#9d3a3a;"/><path d="M2,2l0,5l1,0l0,-5l-1,0Z" style="fill:#9d3a3a;"/></g></g></g></svg>